<svg width="179" height="24" viewBox="0 0 179 24" fill="none" xmlns="http://www.w3.org/2000/svg">
<path d="M45.7256 14.765C45.9682 14.765 46.3918 14.969 46.9712 15.5998C49.9832 18.8817 53.3637 21.4765 56.2075 23.0446C56.6122 23.2709 56.8394 23.4379 56.8394 23.6514C56.8394 23.8158 56.8163 23.9802 56.4632 23.9802C55.8227 23.9802 52.2373 23.2709 51.288 22.8234C50.339 22.3751 48.2899 20.7063 45.8464 16.4785C45.5705 15.9999 45.2781 15.5895 45.2781 15.2074C45.2781 14.8251 45.6245 14.765 45.7256 14.765Z" fill="#6C9ED3"/>
<path d="M53.843 2.68278C53.843 2.68278 54.438 3.862 48.6474 4.68031C49.2784 2.88592 49.6976 1.7034 49.6976 1.7034C50.0628 0.629274 49.233 0 48.6371 0C48.0396 0 47.6022 0.461379 47.3546 1.04152L45.633 4.99363C43.3747 5.14522 41.7029 5.0659 40.9457 4.99187C39.8972 4.88787 39.6271 5.47043 39.6271 6.06533C39.6271 7.10486 41.4534 8.15915 42.6151 8.0448C43.3541 7.97518 43.7777 7.94235 44.3736 7.88374L37.9759 22.5696C37.7316 23.1178 37.5343 24 38.6335 24C39.7335 24 42.2053 22.9922 42.6177 21.8233C42.7924 21.3326 44.0665 17.706 45.4873 13.6633C46.1911 13.5229 48.7778 13.1252 49.4961 13.1252C50.1787 13.1252 50.5277 13.4326 50.5277 13.7966C50.5277 14.6427 48.5085 17.0699 44.5913 20.0615C44.1592 20.3885 44.5167 20.6503 44.7388 20.6503C45.3424 20.6503 48.0412 18.7937 49.3813 17.7782C50.8508 16.6653 53.4117 13.7666 53.4117 11.7301C53.4117 10.9254 53.0586 10.1895 51.4526 10.1895C49.8967 10.1895 47.1479 10.5372 46.5623 10.6121C46.9455 9.52764 47.3193 8.46299 47.6683 7.46731C50.6974 7.04647 52.503 6.77194 53.5669 6.54896C55.0339 6.23741 56.2119 5.39309 56.2119 4.52035C56.2119 2.66383 53.843 2.68278 53.843 2.68278Z" fill="#6A3D27"/>
<path d="M2.3408 11.8781H0.5V10.0494H2.3408V7.6136H4.83392V10.0494H7.19248V11.8781H4.83392V16.3571C4.83392 17.1818 5.05603 17.9444 6.00596 17.9444C6.4526 17.9444 6.8795 17.8505 7.13937 17.6844L7.21399 19.6605C6.6936 19.8145 6.11658 19.8877 5.37143 19.8877C3.41759 19.8877 2.3408 18.6699 2.3408 16.7678V11.8781Z" fill="#6A3D27"/>
<path d="M9.09167 10.0494H11.3036V12.232H11.3447C11.4553 11.3359 12.4772 9.82291 13.964 9.82291C14.2056 9.82291 14.4664 9.82291 14.7269 9.8987V12.4204C14.5065 12.2898 14.059 12.214 13.6124 12.214C11.5839 12.214 11.5839 14.7511 11.5839 16.1317V19.6606H9.09167V10.0494Z" fill="#6A3D27"/>
<path d="M25.0667 19.6605H22.7029V18.3575H22.666C21.9055 19.2904 20.827 19.8877 19.5239 19.8877C17.2562 19.8877 16.271 18.2808 16.271 16.1145V10.0494H18.7608V15.179C18.7608 16.3571 18.7797 17.9444 20.3795 17.9444C22.1825 17.9444 22.5769 15.9827 22.5769 14.7511V10.0494H25.0667V19.6605Z" fill="#6A3D27"/>
<path d="M33.275 13.912C33.1995 12.6984 32.6414 11.6519 31.2474 11.6519C29.8508 11.6519 29.1461 12.6235 29.0337 13.912H33.275ZM34.9468 19.1192C34.0355 19.6244 32.9965 19.8877 31.6563 19.8877C28.4944 19.8877 26.6571 18.0578 26.6571 14.9035C26.6571 12.1183 28.1231 9.82199 31.0982 9.82199C34.6503 9.82199 35.6542 12.2699 35.6542 15.6291H29.0337C29.1461 17.1818 30.2246 18.0578 31.7661 18.0578C32.9776 18.0578 34.0175 17.6077 34.9468 17.087V19.1192Z" fill="#6A3D27"/>
<path d="M55.1581 10.1895H57.3718V12.3706H57.4078C57.5176 11.4736 58.5439 9.96411 60.0305 9.96411C60.2732 9.96411 60.5322 9.96411 60.7918 10.0399V12.559C60.5697 12.4274 60.1231 12.3549 59.6738 12.3549C57.6497 12.3549 57.6497 14.8897 57.6497 16.272V19.8024H55.1581V10.1895Z" fill="#6A3D27"/>
<path d="M62.2373 10.1895H64.7322V19.8024H62.2373V10.1895ZM62.2373 6.18828H64.7322V8.57845H62.2373V6.18828Z" fill="#6A3D27"/>
<path d="M72.9218 14.0548C72.8472 12.8379 72.289 11.7931 70.8942 11.7931C69.5 11.7931 68.7944 12.7648 68.6829 14.0548H72.9218ZM74.5936 19.2602C73.6832 19.7654 72.643 20.028 71.3049 20.028C68.1428 20.028 66.3022 18.1964 66.3022 15.0439C66.3022 12.2595 67.769 9.96411 70.745 9.96411C74.2995 9.96411 75.301 12.4076 75.301 15.7686H68.6829C68.7944 17.3195 69.8712 18.1964 71.4155 18.1964C72.625 18.1964 73.6625 17.7507 74.5936 17.2274V19.2602Z" fill="#6A3D27"/>
<path d="M76.7781 10.1895H79.1393V11.4961H79.1771C79.9598 10.3953 81.0179 9.96411 82.321 9.96411C84.5922 9.96411 85.5737 11.5701 85.5737 13.7391V19.8024H83.0841V14.6693C83.0841 13.4912 83.0661 11.9048 81.4654 11.9048C79.6632 11.9048 79.2706 13.862 79.2706 15.099V19.8024H76.7781V10.1895Z" fill="#6A3D27"/>
<path d="M91.793 18.0845C93.4485 18.0845 93.9896 16.3313 93.9896 14.969C93.9896 13.621 93.3568 11.9048 91.757 11.9048C90.1409 11.9048 89.6943 13.6778 89.6943 14.969C89.6943 16.2919 90.1554 18.0845 91.793 18.0845ZM94.0831 18.718H94.0462C93.3028 19.652 92.28 20.0281 91.108 20.0281C88.1682 20.0281 87.0903 17.5991 87.0903 14.969C87.0903 12.3164 88.1682 9.96413 91.108 9.96413C92.3529 9.96413 93.2282 10.3953 93.9733 11.3101H94.0067V5.80093H96.5V19.8024H94.0831V18.718Z" fill="#6A3D27"/>
<path d="M105.453 7.1875H112.906V9.125H107.797V11.875H112.422V13.8125H107.797V18.5H105.453V7.1875ZM114.453 7.1875H122.047V9.125H116.797V11.875H121.656V13.8125H116.797V16.5625H122.062V18.5H114.453V7.1875ZM130.016 10.4219C129.969 9.97396 129.773 9.625 129.43 9.375C129.091 9.125 128.635 9 128.062 9C127.672 9 127.336 9.05729 127.055 9.17188C126.779 9.28125 126.568 9.4349 126.422 9.63281C126.276 9.83073 126.203 10.0547 126.203 10.3047C126.203 10.6797 126.365 10.9766 126.688 11.1953C127.016 11.4089 127.458 11.5781 128.016 11.7031L129.031 11.9531C130.078 12.1927 130.904 12.5833 131.508 13.125C132.112 13.6615 132.417 14.375 132.422 15.2656C132.422 15.9531 132.247 16.5521 131.898 17.0625C131.549 17.5729 131.047 17.9661 130.391 18.2422C129.734 18.5182 128.953 18.6562 128.047 18.6562C127.13 18.6615 126.336 18.5234 125.664 18.2422C124.992 17.9609 124.469 17.5443 124.094 16.9922C123.719 16.4401 123.521 15.7656 123.5 14.9688H125.781C125.818 15.526 126.036 15.9531 126.438 16.25C126.844 16.5417 127.37 16.6875 128.016 16.6875C128.422 16.6875 128.779 16.6276 129.086 16.5078C129.393 16.388 129.63 16.2214 129.797 16.0078C129.964 15.7943 130.047 15.5469 130.047 15.2656C130.047 14.901 129.888 14.612 129.57 14.3984C129.258 14.1797 128.771 13.9896 128.109 13.8281L126.875 13.5312C124.823 13.026 123.797 12 123.797 10.4531C123.797 9.78125 123.979 9.1875 124.344 8.67188C124.714 8.15104 125.221 7.7474 125.867 7.46094C126.518 7.17448 127.255 7.03125 128.078 7.03125C128.901 7.03125 129.628 7.17448 130.258 7.46094C130.888 7.7474 131.378 8.14844 131.727 8.66406C132.076 9.17448 132.255 9.76042 132.266 10.4219H130.016ZM133.516 7.1875H142.781V9.125H139.312V18.5H136.984V9.125H133.516V7.1875ZM146.578 18.5H144.234V7.1875H146.578V18.5ZM153.219 15.8125H153.328L156.094 7.1875H158.688L154.781 18.5H151.766L147.844 7.1875H150.469L153.219 15.8125ZM157.844 18.5L161.766 7.1875H164.781L168.688 18.5H166.172L165.32 15.8906H161.227L160.375 18.5H157.844ZM164.727 14.0625L163.312 9.73438H163.234L161.82 14.0625H164.727ZM169.969 7.1875H172.312V16.5625H177.188V18.5H169.969V7.1875Z" fill="#222222"/>
</svg>
